<svg width="960" height="720" viewBox="0 0 960 720" fill="none" xmlns="http://www.w3.org/2000/svg">
  <defs>
    <radialGradient id="glow" cx="0" cy="0" r="1" gradientUnits="userSpaceOnUse" gradientTransform="translate(790 120) rotate(135) scale(620 540)">
      <stop offset="0" stop-color="#FFFFFF" stop-opacity="0.95" />
      <stop offset="0.08" stop-color="#F6EEFF" stop-opacity="0.9" />
      <stop offset="0.18" stop-color="#DDAAFF" stop-opacity="0.95" />
      <stop offset="0.34" stop-color="#AB5CFF" stop-opacity="0.84" />
      <stop offset="0.56" stop-color="#6426E0" stop-opacity="0.46" />
      <stop offset="0.82" stop-color="#38114C" stop-opacity="0.14" />
      <stop offset="1" stop-color="#0A0914" stop-opacity="0" />
    </radialGradient>
    <radialGradient id="core" cx="0" cy="0" r="1" gradientUnits="userSpaceOnUse" gradientTransform="translate(760 150) rotate(135) scale(470 430)">
      <stop offset="0" stop-color="#F8F0FF" stop-opacity="0.24" />
      <stop offset="0.16" stop-color="#E9D1FF" stop-opacity="0.15" />
      <stop offset="0.42" stop-color="#B56CFF" stop-opacity="0.08" />
      <stop offset="1" stop-color="#7C3CFF" stop-opacity="0" />
    </radialGradient>
    <filter id="softBlur" x="-30%" y="-30%" width="160%" height="160%">
      <feGaussianBlur stdDeviation="8" />
    </filter>
    <filter id="glowBlur" x="-40%" y="-40%" width="180%" height="180%">
      <feGaussianBlur stdDeviation="3.5" />
    </filter>
    <clipPath id="sphere">
      <circle cx="790" cy="120" r="430" />
    </clipPath>
  </defs>

  <g clip-path="url(#sphere)">
    <circle cx="790" cy="120" r="440" fill="url(#glow)" />
    <circle cx="790" cy="120" r="390" fill="url(#core)" />

    <g opacity="0.28" filter="url(#softBlur)" stroke="#DFAEFF" stroke-linecap="round">
      <path d="M470 20C620 78 712 112 790 126" stroke-width="2.2" />
      <path d="M450 110C598 155 700 162 860 130" stroke-width="2.2" />
      <path d="M450 208C606 248 708 250 876 206" stroke-width="2.1" />
      <path d="M486 304C628 345 724 350 876 316" stroke-width="1.9" />
    </g>

    <g filter="url(#glowBlur)" stroke="#E9C4FF" stroke-linecap="round" stroke-linejoin="round">
      <circle cx="790" cy="120" r="372" stroke="rgba(255,255,255,0.24)" stroke-width="1.8" />
      <circle cx="790" cy="120" r="302" stroke="rgba(255,255,255,0.14)" stroke-width="1.4" />
      <circle cx="790" cy="120" r="228" stroke="rgba(255,255,255,0.11)" stroke-width="1.2" />

      <ellipse cx="790" cy="120" rx="355" ry="132" transform="rotate(-18 790 120)" stroke="rgba(255,255,255,0.12)" stroke-width="1.2" />
      <ellipse cx="790" cy="120" rx="355" ry="132" transform="rotate(18 790 120)" stroke="rgba(255,255,255,0.12)" stroke-width="1.2" />
      <ellipse cx="790" cy="120" rx="290" ry="106" transform="rotate(-35 790 120)" stroke="rgba(255,255,255,0.1)" stroke-width="1.1" />
      <ellipse cx="790" cy="120" rx="290" ry="106" transform="rotate(35 790 120)" stroke="rgba(255,255,255,0.1)" stroke-width="1.1" />
      <ellipse cx="790" cy="120" rx="210" ry="82" transform="rotate(-58 790 120)" stroke="rgba(255,255,255,0.08)" stroke-width="1" />
      <ellipse cx="790" cy="120" rx="210" ry="82" transform="rotate(58 790 120)" stroke="rgba(255,255,255,0.08)" stroke-width="1" />

      <path d="M500 72L588 44L654 76L720 50L792 84L864 56L914 70" stroke="rgba(255,255,255,0.22)" stroke-width="1.2" />
      <path d="M484 134L568 106L642 146L712 120L788 156L866 128L930 140" stroke="rgba(255,255,255,0.2)" stroke-width="1.15" />
      <path d="M476 198L558 172L636 214L712 190L796 230L876 202L938 220" stroke="rgba(255,255,255,0.18)" stroke-width="1.1" />
      <path d="M500 264L584 236L660 278L742 246L826 286L908 258" stroke="rgba(255,255,255,0.16)" stroke-width="1.05" />
      <path d="M540 332L620 304L700 344L784 314L866 352" stroke="rgba(255,255,255,0.13)" stroke-width="1" />

      <path d="M500 72L484 134L476 198L500 264L540 332" stroke="rgba(255,255,255,0.17)" stroke-width="1" />
      <path d="M588 44L568 106L558 172L584 236L620 304" stroke="rgba(255,255,255,0.17)" stroke-width="1" />
      <path d="M654 76L642 146L636 214L660 278L700 344" stroke="rgba(255,255,255,0.17)" stroke-width="1" />
      <path d="M720 50L712 120L712 190L742 246L784 314" stroke="rgba(255,255,255,0.17)" stroke-width="1" />
      <path d="M792 84L788 156L796 230L826 286L866 352" stroke="rgba(255,255,255,0.17)" stroke-width="1" />
      <path d="M864 56L866 128L876 202L908 258" stroke="rgba(255,255,255,0.17)" stroke-width="1" />

      <circle cx="500" cy="72" r="7" fill="#FBF4FF" />
      <circle cx="588" cy="44" r="8" fill="#FBF4FF" />
      <circle cx="654" cy="76" r="7" fill="#FBF4FF" />
      <circle cx="720" cy="50" r="8" fill="#FBF4FF" />
      <circle cx="792" cy="84" r="8" fill="#FBF4FF" />
      <circle cx="864" cy="56" r="7" fill="#FBF4FF" />
      <circle cx="914" cy="70" r="6" fill="#FBF4FF" />
      <circle cx="484" cy="134" r="7" fill="#FBF4FF" />
      <circle cx="568" cy="106" r="7" fill="#FBF4FF" />
      <circle cx="642" cy="146" r="8" fill="#FBF4FF" />
      <circle cx="712" cy="120" r="7" fill="#FBF4FF" />
      <circle cx="788" cy="156" r="8" fill="#FBF4FF" />
      <circle cx="866" cy="128" r="7" fill="#FBF4FF" />
      <circle cx="930" cy="140" r="6" fill="#FBF4FF" />
      <circle cx="476" cy="198" r="7" fill="#FBF4FF" />
      <circle cx="558" cy="172" r="7" fill="#FBF4FF" />
      <circle cx="636" cy="214" r="8" fill="#FBF4FF" />
      <circle cx="712" cy="190" r="7" fill="#FBF4FF" />
      <circle cx="796" cy="230" r="8" fill="#FBF4FF" />
      <circle cx="876" cy="202" r="7" fill="#FBF4FF" />
      <circle cx="938" cy="220" r="6" fill="#FBF4FF" />
      <circle cx="500" cy="264" r="7" fill="#FBF4FF" />
      <circle cx="584" cy="236" r="8" fill="#FBF4FF" />
      <circle cx="660" cy="278" r="7" fill="#FBF4FF" />
      <circle cx="742" cy="246" r="8" fill="#FBF4FF" />
      <circle cx="826" cy="286" r="8" fill="#FBF4FF" />
      <circle cx="908" cy="258" r="6" fill="#FBF4FF" />
      <circle cx="540" cy="332" r="7" fill="#FBF4FF" />
      <circle cx="620" cy="304" r="8" fill="#FBF4FF" />
      <circle cx="700" cy="344" r="7" fill="#FBF4FF" />
      <circle cx="784" cy="314" r="8" fill="#FBF4FF" />
      <circle cx="866" cy="352" r="6" fill="#FBF4FF" />
    </g>

    <g opacity="0.5" filter="url(#glowBlur)">
      <circle cx="815" cy="60" r="18" fill="#FFF5FF" />
      <circle cx="868" cy="128" r="12" fill="#FFF5FF" />
      <circle cx="750" cy="224" r="14" fill="#FFF5FF" />
      <circle cx="675" cy="88" r="11" fill="#FFF5FF" />
    </g>
  </g>
</svg>
